<svg id="loader" viewBox="0 0 256 302.41">
  <defs>
    <style>
      .cls-1 {
        fill: #a26569;
      }

      .cls-2 {
        fill: #231f20;
      }

      .cls-3 {
        fill: #7d8241;
      }

      .cls-4 {
        opacity: .5;
      }

      .cls-5 {
        fill: #cfbebe;
      }

      .cls-6 {
        fill: #d5ea7a;
      }
    </style>
  </defs>
  <g id="steam_x5F__x5F_group">
    <g id="smallest" class="cls-4">
      <path class="cls-1" d="M186.95,162.54c3.41-1.02,7.68-1.44,10.53-3.76,1.19-.97,1.97-2.3,2.47-3.74.71-2.03,1.19-4.39,1.13-6.55-.15-4.94-3.04-9.7-6.43-13.14s-7.59-5.83-12.38-5.31c-5.03.55-9.36,4.19-10.82,9.03-1.39,4.6,1.02,8.9,4.11,12.23s7.34,5.69,11.82,3.68,7.12-8.53,3.01-12.23c-1.98-1.78-5.08-2.16-7.41-.86s-3.85,4.51-2.35,6.98c1.37,2.26,4.69,2.78,6.75,1.18,1.07-.83,1.73-2.26,1.4-3.61s-1.51-2.02-2.81-2.26-2.25,1.1-.61,1.4c2.18.4.47,5.63-1.89,3.37-1.62-1.55-.94-4.32.62-5.64,1.7-1.44,3.87-.52,4.98,1.18,1.19,1.83,1.06,4.13.15,6.05-.83,1.76-2.44,3.29-4.39,3.68-1.59.32-3.04-.37-4.32-1.25-2.93-2.02-5.45-5.21-6.59-8.59-1.22-3.62.46-7.64,3.1-10.2s6.53-3.54,10.01-2.01,6.34,4.43,8.39,7.55,3.53,6.74,3.1,10.46c-.33,2.86-.96,6.55-3.61,8.22-1.08.68-2.34,1.04-3.55,1.38-1.9.53-3.81,1.01-5.7,1.57-.47.14-.76.59-.41.99.39.44,1.24.33,1.72.19h0Z"/>
    </g>
    <g id="small" class="cls-4">
      <path class="cls-1" d="M128.52,162.29c.01-11.44,4.11-25.4,15.76-29.62,12.05-4.36,27.82,2.61,32.84,14.51,2.5,5.93,1.71,12.99-2.32,18.07-3.62,4.57-9.84,6.65-15.46,4.68-6.15-2.16-10.34-8.58-9.91-15.08.21-3.19,1.74-6.36,3.92-8.68,1.69-1.8,4.19-3.51,6.75-2.6,2.81,1,4.5,4.02,5.42,6.68s1.54,6.41-.42,8.87c-1.71,2.15-4.71,1.68-6.48-.36-2.09-2.4-1.46-5.57-.19-8.18.29-.59.63-1.12,1.04-1.63.11-.14.35-.19.18-.21-.08,0-.9.19-.36.17,1.04-.03,2.57-.82,2.92-1.86.38-1.14-.72-1.42-1.61-1.4-4.01.1-6.61,4.29-7.59,7.72-1.06,3.73-.09,7.63,3.52,9.56,3.84,2.06,8.95.47,11.83-2.54s3.15-7.14,2.07-11.07c-.94-3.44-2.98-6.96-6.31-8.55-3.69-1.76-8.38-.22-11.5,2.02-6.82,4.88-9.98,13.78-6.24,21.55,1.71,3.56,4.65,6.43,8.22,8.09s7.91,1.84,11.85.99c7.81-1.7,14.39-7.91,16.23-15.72s-1.18-15.42-6.88-20.87c-6.03-5.76-14.43-8.87-22.73-8.7-7.84.17-15.32,3.5-20.56,9.34-4.99,5.55-7.52,12.93-8.37,20.25-.23,1.94-.33,3.9-.33,5.85,0,2.1,4.71.57,4.71-1.28h0Z"/>
    </g>
    <g id="big" class="cls-4">
      <path class="cls-1" d="M110.56,200.66c-11.57-.2-22.77-4.18-31.78-11.46s-15.25-17.18-17.99-28.27-1.79-23.57,4.27-33.6c5.7-9.45,15.01-16.26,25.86-18.42,11.4-2.28,23.12,1.02,31.2,9.48s11.5,21.02,7.53,31.86-14.4,17.43-25.55,15.68-20.12-14.33-16.42-25.59c1.62-4.92,5.6-8.94,10.76-9.87,5.63-1.01,11.24,1.8,13.78,6.94,2.27,4.61,1.83,11.49-3.29,13.96s-11.18-2.23-10.7-7.85c.21-2.48,1.76-4.22,4.19-4.25,1.03-.01,2.57-.83,2.92-1.86.39-1.15-.72-1.41-1.61-1.4-3.7.04-7.38,2.15-9.17,5.4-1.57,2.85-1.32,6.5.42,9.22,4.13,6.43,13.02,5.59,18.38,1.27s6.32-11.79,2.88-17.53-10.47-8.28-17.12-7.04-12.73,5.75-15.43,12.07c-2.56,5.97-1.68,13.16,1.57,18.7s8.84,9.53,15.18,10.86c6.77,1.42,14.03-.13,20.03-3.42,5.66-3.11,10.28-8.03,12.95-13.91s3.07-12.87,1.67-19.34c-2.7-12.48-12.58-22.75-24.88-26.09-12.9-3.51-27.34.19-37.84,8.2s-17.04,20.04-17.69,33.12,3.7,25.85,11.73,35.97c7.99,10.08,19.51,16.94,32.11,19.43,3.18.63,6.41.95,9.65,1.01,1.17.02,2.53-.44,3.23-1.44.55-.8.3-1.81-.82-1.82h0Z"/>
    </g>
    <g id="biggest" class="cls-4">
      <path class="cls-1" d="M153.97,172.84c10.28-10.77,18.29-24.1,22.97-38.24,4.42-13.38,6.03-28.96-.81-41.84-3.6-6.78-9.41-12.13-15.84-16.2s-14.28-6.92-22.16-7.78c-15.08-1.64-31.87,4.14-41.51,16.16s-9.06,29.46-1.09,42.3c4.29,6.92,10.55,12.77,18.18,15.79s15.29,3.01,22.65.49,14.32-7.35,17.22-14.76,1.57-15.29-2.41-21.71c-4.2-6.79-11.34-11.67-19.48-11.66-7.46.01-16.63,4.04-19.41,11.44s1.01,16.18,7.87,19.75c3.54,1.84,7.58,1.9,11.33.71s7.7-3.49,9.04-7.36c1.26-3.65.1-7.74-2.51-10.5-2.94-3.1-7-3.6-10.93-2.24s-7.49,4.09-6.56,8.51c.4,1.92,1.67,3.68,3.38,4.64,1.82,1.03,3.95.83,5.87.21s4.25-1.66,5.14-3.57c.79-1.7.22-3.61-1.04-4.91-.9-.93-4.85,1.64-4.64,1.85,1.18,1.22,1.88,3.08,1.02,4.69-.29.54-1.14,1,0,.55s.21-.2-.35-.3c-.99-.17-1.95-.69-2.68-1.37-1.23-1.16-2.05-2.79-2.17-4.48-.06-.87.06-1.73.39-2.54.35-.85,1-1.25,1.49-1.96.32-.47.05.29-.3.09.14.08.7-.05.89-.05.93,0,1.85.22,2.71.57,1.72.69,3.13,1.93,4.19,3.44,1.98,2.81,2.66,6.6,1.14,9.77-.61,1.28-1.67,2.66-2.98,3.3-.95.47-2.46.4-3.55.28-3.66-.39-6.9-2.5-9.18-5.31-4.28-5.26-5.43-13.36-.92-18.86,1.86-2.26,4.18-3.72,7.06-4.08,3.34-.42,6.79.25,9.86,1.6,6.66,2.93,11.64,9.33,13.64,16.24,1.86,6.44,1.09,13.57-2.83,19.12-3.59,5.08-9.16,8.1-15.32,8.5-14.9.96-27.86-9.55-33.76-22.63-5.53-12.26-4.78-27.48,4.34-37.86,4.1-4.66,9.4-8.33,15.32-10.22s12.99-2.2,19.38-1.16c6.98,1.13,13.69,3.77,19.63,7.6s11.14,8.62,14.64,14.68c6.48,11.24,6.21,24.92,3.06,37.15-3.38,13.15-9.91,25.59-18.22,36.28-1.88,2.42-3.88,4.73-5.99,6.95-.72.76.8.49,1.13.41,1-.24,2.36-.69,3.1-1.46h0Z"/>
    </g>
  </g>
  <path id="mug_x5F__x5F_handle" class="cls-2" d="M220.17,189.11c4.07,0,7.38,3.31,7.38,7.38v27.51c0,4.07-3.31,7.38-7.38,7.38h-14.24v-42.28h14.24M220.17,179.11h-24.24v62.28h24.24c9.6,0,17.38-7.78,17.38-17.38v-27.51c0-9.6-7.78-17.38-17.38-17.38h0Z"/>
  <g id="mug">
    <path class="cls-5" d="M81.41,285.4c-16.55,0-30.01-13.46-30.01-30.01v-86.41c0-2.76,2.24-5,5-5h139.53c2.76,0,5,2.24,5,5v86.41c0,16.55-13.46,30.01-30.01,30.01h-89.51Z"/>
    <path class="cls-2" d="M195.93,168.99v86.41c0,13.81-11.2,25.01-25.01,25.01h-89.51c-13.81,0-25.01-11.2-25.01-25.01v-86.41h139.53M195.93,158.99H56.4c-5.52,0-10,4.48-10,10v86.41c0,19.3,15.71,35.01,35.01,35.01h89.51c19.3,0,35.01-15.71,35.01-35.01v-86.41c0-5.52-4.48-10-10-10h0Z"/>
  </g>
  <g id="teabag">
    <path class="cls-1" d="M139.41,227.49c-2.76,0-5-2.24-5-5v-27.95c0-1.36.56-2.67,1.54-3.61l18.04-17.28c.97-.93,2.21-1.39,3.46-1.39s2.49.46,3.46,1.39l18.04,17.28c.99.94,1.54,2.25,1.54,3.61v27.95c0,2.76-2.24,5-5,5h-36.08Z"/>
    <path class="cls-2" d="M157.45,177.27l18.04,17.27v27.95h-36.08v-27.95l18.04-17.27M157.45,167.27c-2.49,0-4.98.93-6.92,2.78l-18.04,17.27c-1.97,1.89-3.08,4.5-3.08,7.22v27.95c0,5.52,4.48,10,10,10h36.08c5.52,0,10-4.48,10-10v-27.95c0-2.73-1.11-5.34-3.08-7.22l-18.04-17.27c-1.93-1.85-4.42-2.78-6.92-2.78h0Z"/>
  </g>
  <g id="leaf-right">
    <path class="cls-6" d="M72.63,283.08c-3.03-14.45-5.9-28.1,3.02-40.64,7.14-10.04,13.17-11.42,25.19-14.16,3.63-.83,7.6-1.74,12.12-3.01.59,3.05,1.19,5.87,1.74,8.48,3.27,15.46,4.91,23.23-2.98,34.33-8.14,11.46-19.19,13.16-33.18,15.31-1.85.29-3.74.58-5.66.89-.08-.4-.17-.79-.25-1.19Z"/>
    <path class="cls-2" d="M109.1,231.45c.24,1.14.47,2.25.7,3.32,3.24,15.34,4.45,21.08-2.16,30.4-6.61,9.3-14.78,10.94-29.86,13.26-.32.05-.65.1-.98.15-2.55-12.47-4.08-23.39,2.92-33.25,6.03-8.49,10.77-9.57,22.22-12.19,2.16-.49,4.55-1.04,7.16-1.69M116.87,218.86c-23.34,7.5-33.77,4.45-45.3,20.68-11.53,16.23-5.9,33.62-2.62,50.51,18.88-3.67,35.31-2.86,46.84-19.09,11.53-16.23,5.37-27.04,1.08-52.1h0Z"/>
  </g>
  <g id="leaf--left">
    <path class="cls-3" d="M68.86,285.51c-13.93,0-24.27-1.79-32.8-10.69-10.33-10.79-10.33-16.73-10.33-34.38,0-1.71,0-3.54-.01-5.5,3.29,0,6.27-.06,9.15-.11,2.45-.05,4.75-.09,6.92-.09,11.86,0,18.47,1.37,26.23,9.48,9.72,10.15,9.31,21.32,8.79,35.46-.07,1.87-.14,3.78-.19,5.73-.4,0-.81.01-1.21.02-2.18.04-4.37.08-6.55.08Z"/>
    <path class="cls-2" d="M41.79,239.74c11.08,0,16.17,1.2,22.62,7.94,7.89,8.24,7.97,16.58,7.4,31.82-.01.33-.02.66-.04.99-.98.01-1.96.02-2.92.02-12.94,0-21.86-1.5-29.19-9.15-8.94-9.34-8.94-13.48-8.94-30.92,0-.18,0-.36,0-.53,1.48-.02,2.9-.05,4.23-.07,2.43-.05,4.72-.09,6.83-.09M41.79,229.74c-4.72,0-10.01.2-16.16.2-1.6,0-3.25-.01-4.97-.05.42,26.16-1.98,34,11.78,48.38,10.4,10.86,23.3,12.23,36.41,12.23,4.24,0,8.5-.14,12.7-.15-.05-19.23,3.83-35.21-9.93-49.59-9.26-9.67-17.62-11.02-29.84-11.02h0Z"/>
  </g>
</svg>